<svg height="512" viewBox="0 0 511.992 511.992" width="512" xmlns="http://www.w3.org/2000/svg"><g clip-rule="evenodd" fill-rule="evenodd"><path d="M295.015 149.732l-35.11-117.548c-13.007-43.545-66.796-16.685-53.9 26.226l38.128 126.862c-21.438-14.463-36.453-11.768-63.155 9.847-22.033 17.835-56.51 35.92-64.819 39.951-11.741 5.695-5.367 31.271 14.816 35.413 43.391 8.905 69.326-42.462 93.582-20.111 20.671 19.047 35.662 34.428 21.431 51.28-22.579 26.741-28.438 26.156-49.143 15.339-30.404-15.882-23.375-37.455-56.574-44.417-21.155-4.436-40.159 13.453-32.564 24.617 5.375 7.901 16.202 17.28 26.497 44.759 20.606 55.001 71.359 43.092 71.359 98.153h183.004c0-30.613 17.434-61.225 17.434-91.838v-74.596l-6.819-116.336c-.836-14.269-5.207-27.312-19.905-27.312-13.698 0-26.871 10.28-26.927 23.132l-11.042-82.624c-6.523-48.81-59.429-19.099-53.72 23.615z" fill="#ffdcd5"/><path d="M388.566 440.104H196.514v61.888h201.145v-61.888z" fill="#ff9346"/></g><path d="M416 348.267v-74.596c0-.195-.006-.39-.017-.585l-6.819-116.335c-1.872-31.956-19.529-36.727-29.888-36.727-7.255 0-14.407 2.121-20.478 5.89l-7.578-56.707c-3.711-27.764-20.988-35.479-34.657-33.656-14.661 1.959-29.084 14.531-35.676 31.939l-11.4-38.169C263.307 8.63 250.046 2.615 242.691.872c-12.432-2.947-26.251 1.692-36.066 12.105-11.734 12.45-15.546 30.51-10.196 48.31l31.846 105.96c-18.406-3.952-34.553 4.691-53.589 20.099-21.032 17.025-54.958 34.878-62.892 38.727-8.275 4.015-12.59 13.101-11.261 23.714.809 6.454 3.865 13.623 9.14 19.47-3.917 2.664-7.134 5.853-9.394 9.228-5.403 8.068-5.718 17.165-.841 24.333 1.408 2.069 3.039 4.109 4.767 6.268 5.562 6.952 13.178 16.474 20.634 36.375 10.612 28.328 28.866 41.061 43.533 51.292 13.947 9.729 23.825 16.634 26.47 33.503-4.725.797-8.327 4.897-8.327 9.849v61.888c0 5.523 4.477 10 10 10H397.66c5.523 0 10-4.477 10-10v-61.888c0-4.997-3.67-9.126-8.459-9.869 1.295-10.774 4.424-21.794 7.703-33.311 4.471-15.711 9.096-31.956 9.096-48.658zm-28.341 143.725H206.514v-41.888h45.569c5.523 0 10-4.477 10-10s-4.477-10-10-10h-37.081c-3.16-27.412-19.416-38.755-35.188-49.756-13.675-9.54-27.817-19.403-36.247-41.904-8.575-22.888-17.704-34.3-23.745-41.852-1.521-1.901-2.837-3.546-3.82-4.984.045-.502.652-2.345 3.252-4.594 3.882-3.357 10.901-6.341 18.963-4.651 14.542 3.049 18.788 8.814 25.214 17.54 5.822 7.905 13.068 17.744 28.783 25.953 11.143 5.821 20.508 10.05 31.09 7.209 10-2.683 18.69-11.184 30.324-24.96 9.22-10.918 10.432-23.389 3.507-36.063-5.338-9.771-14.844-18.924-25.803-29.022-17.793-16.397-36.844-4.999-52.151 4.16-14.066 8.415-28.611 17.118-46.197 13.509-7.958-1.633-11.031-8.196-11.783-10.169-1.318-3.457-.899-5.893-.563-6.507 10.42-5.067 44.578-23.269 66.63-41.12 25.123-20.335 35.273-20.123 51.271-9.33 4.556 3.073 8.64 4.424 11.922 5.508 4.332 1.432 7.461 2.467 12.655 7.493 3.968 3.84 10.299 3.737 14.14-.232 3.841-3.968 3.737-10.299-.232-14.14-8.481-8.208-15.026-10.372-20.286-12.11-1.583-.523-2.911-.967-4.187-1.537L215.582 55.531c-4.709-15.669 2.346-25.385 5.597-28.835 4.927-5.228 11.405-7.667 16.898-6.362 6.984 1.656 10.514 8.915 12.246 14.712l40.353 135.102c2.454 8.821 7.066 14.905 11.137 20.276 5.496 7.251 10.243 13.514 11.566 27.412.493 5.176 4.848 9.053 9.943 9.052.317 0 .638-.015.96-.045 5.498-.524 9.53-5.405 9.007-10.903-1.863-19.555-9.445-29.559-15.538-37.597-3.575-4.717-6.399-8.442-7.825-13.617a15.785 15.785 0 00-.059-.205l-5.045-16.891-7.324-54.806c-2.727-20.403 11.264-36.05 21.713-37.447 8.11-1.081 11.099 8.365 12.183 16.481l23.703 177.362c.672 5.025 4.965 8.677 9.899 8.677.441 0 .888-.029 1.337-.089 5.474-.732 9.319-5.763 8.587-11.237l-12.293-91.981c-.527-3.647 1.223-6.568 2.786-8.376 3.3-3.817 8.611-6.188 13.86-6.188 2.88 0 8.874 0 9.922 17.897L396 273.965v74.302c0 13.911-4.048 28.128-8.333 43.181-3.574 12.554-7.247 25.455-8.577 38.656h-37.006c-5.523 0-10 4.477-10 10s4.477 10 10 10h45.575zm-218.888-216.55c7.575-3.26 14.432-7.362 20.68-11.101 16.942-10.136 22.376-12.102 28.33-6.614 24.927 22.97 27.059 29.787 20.567 37.475-7.083 8.389-15.024 17.152-20.224 18.546-3.311.889-8.006-1.104-16.648-5.619-11.615-6.067-16.63-12.876-21.939-20.086-3.068-4.164-6.31-8.568-10.766-12.601z"/><path d="M297.087 430.104h-.008c-5.523 0-9.996 4.477-9.996 10s4.481 10 10.004 10 10-4.477 10-10-4.477-10-10-10z"/></svg>