<svg height="512pt" viewBox="0 0 512 512" width="512pt" xmlns="http://www.w3.org/2000/svg"><linearGradient id="a" gradientTransform="matrix(1 0 0 -1 0 -19430)" gradientUnits="userSpaceOnUse" x1="0" x2="512" y1="-19686" y2="-19686"><stop offset="0" stop-color="#00f38d"/><stop offset="1" stop-color="#009eff"/></linearGradient><path d="M512 256c0 141.387-114.613 256-256 256S0 397.387 0 256 114.613 0 256 0s256 114.613 256 256zm0 0" fill="url(#a)"/><path d="M314.203 247.938c23.516-17.711 38.75-45.852 38.75-77.489 0-53.457-43.492-96.949-96.953-96.949-53.457 0-96.95 43.492-96.95 96.95 0 31.636 15.231 59.777 38.747 77.488C134.836 271.57 89.902 332.382 89.902 403.5h30c0-75.047 61.055-136.098 136.102-136.098 75.043 0 136.098 61.051 136.098 136.098h30c-.004-71.117-44.934-131.93-107.899-155.563zm-125.152-77.489c0-36.918 30.031-66.949 66.949-66.949s66.95 30.031 66.95 66.95-30.032 66.952-66.95 66.952-66.95-30.035-66.95-66.953zm0 0" fill="#fff"/></svg>